<svg id="Layer_1" data-name="Layer 1" xmlns="http://www.w3.org/2000/svg" viewBox="0 0 122.19 172.5"><defs><style>.cls-1{fill:#fff;}</style></defs><title>h_logo</title><path class="cls-1" d="M40.5,21.28a92.72,92.72,0,0,1,5,8.94q2.3,4.56,4.28,9.25a197.15,197.15,0,0,1,6.92,19.11,207.34,207.34,0,0,1,8,39.93,155.25,155.25,0,0,1-1.09,41.16c-.54,3.42-1.35,6.82-2.21,10.18a95.79,95.79,0,0,1-3.31,9.9l-1,2.42c-.37.79-.73,1.58-1.12,2.36a47,47,0,0,1-2.42,4.61c-.9,1.49-1.75,3-2.76,4.39s-2.07,2.77-3.17,4.08a162.36,162.36,0,0,0,2.8-19.7c.33-3.21.39-6.46.56-9.66,0-1.62.05-3.22.09-4.83s0-3.22,0-4.81c-.09-12.84-1.08-25.66-2.3-38.55S46,74.24,44.46,61.17,41.35,34.94,40.5,21.28Z" transform="translate(-40.5 -10.5)"/><path class="cls-1" d="M62.06,107.53a42.41,42.41,0,0,1,4.79-2.44c1.59-.72,3.2-1.33,4.8-1.92a92,92,0,0,1,9.67-2.81,110.17,110.17,0,0,1,19.46-2.62,108.54,108.54,0,0,1,19.62.8,92,92,0,0,1,9.88,1.92c1.65.44,3.3.9,5,1.47a42.32,42.32,0,0,1,5,2,40.91,40.91,0,0,1-4.79,2.45c-1.59.72-3.2,1.34-4.8,1.92a86.88,86.88,0,0,1-9.67,2.82,107.39,107.39,0,0,1-19.46,2.59,108.56,108.56,0,0,1-19.62-.82A89.1,89.1,0,0,1,72,111c-1.65-.44-3.3-.9-5-1.47A42.13,42.13,0,0,1,62.06,107.53Z" transform="translate(-40.5 -10.5)"/><path class="cls-1" d="M162.69,10.5c-2.55,14.87-5.35,29.21-7.8,43.55s-4.64,28.54-6.26,42.76c-.37,3.56-.79,7.11-1,10.67-.4,3.55-.52,7.11-.81,10.67-.41,7.12-.55,14.23-.57,21.38s.44,14.29,1,21.52S149,175.49,150.11,183a77.26,77.26,0,0,1-5.86-9.73,105.16,105.16,0,0,1-4.66-10.45,130.26,130.26,0,0,1-5.89-22.15c-.56-3.77-1.18-7.57-1.44-11.38-.42-3.81-.48-7.62-.63-11.44,0-1.9,0-3.81,0-5.72s.09-3.8.18-5.71c.17-3.8.55-7.58.89-11.37a207.48,207.48,0,0,1,10-44.14A197.63,197.63,0,0,1,151.32,30c1.66-3.38,3.36-6.73,5.26-10A94,94,0,0,1,162.69,10.5Z" transform="translate(-40.5 -10.5)"/></svg>